<?xml version="1.0" standalone="no"?>
<!DOCTYPE svg PUBLIC "-//W3C//DTD SVG 1.1//EN" "http://www.w3.org/Graphics/SVG/1.1/DTD/svg11.dtd" >
<svg xmlns="http://www.w3.org/2000/svg">
<metadata></metadata>
<defs>
<font id="MyriadProSemibold" horiz-adv-x="1097" >
<font-face units-per-em="2048" ascent="1536" descent="-512" />
<missing-glyph horiz-adv-x="423" />
<glyph unicode="&#xfb03;" horiz-adv-x="1763" d="M29 809v188h135v25q0 209 125 328q103 100 278 100q91 0 176 -39l-61 -182q-50 26 -104 26q-69 0 -109 -43q-55 -55 -55 -182v-33h370v47q0 200 130 316.5t352 116.5q70 0 144.5 -16.5t119.5 -41.5l-60 -190q-88 47 -204 47q-123 0 -177.5 -65t-54.5 -173v-41h594v-997 h-252v809h-340v-809h-252v809h-368v-809h-252v809h-135z" />
<glyph unicode="&#xfb04;" horiz-adv-x="1763" d="M29 809v188h135v19q0 212 121 327q110 107 299 107q83 0 161 -33l-57 -184q-52 22 -106 22q-74 0 -113 -45q-55 -55 -55 -180v-33h370v43q0 95 38.5 183t109.5 147q131 107 350 107q204 0 346 -76v-1401h-252v1264q-42 22 -131 22q-109 0 -160 -67.5t-51 -176.5v-45h205 v-188h-203v-809h-252v809h-368v-809h-252v809h-135z" />
<glyph horiz-adv-x="2048" />
<glyph horiz-adv-x="2048" />
<glyph unicode="&#xd;" horiz-adv-x="2048" />
<glyph unicode=" "  horiz-adv-x="423" />
<glyph unicode="&#x09;" horiz-adv-x="423" />
<glyph unicode="&#xa0;" horiz-adv-x="423" />
<glyph unicode="!" horiz-adv-x="514" d="M100 137q0 71 43.5 115.5t112.5 44.5q70 0 112 -44.5t44 -115.5q0 -69 -43.5 -114.5t-114.5 -45.5q-67 0 -110.5 46t-43.5 114zM123 1380h266l-37 -954h-190z" />
<glyph unicode="&#x22;" horiz-adv-x="757" d="M86 1417h231l-41 -526h-149zM440 1417h232l-41 -526h-150z" />
<glyph unicode="#" horiz-adv-x="1077" d="M76 383v158h194l35 260h-174v157h199l51 373h154l-52 -373h199l53 373h154l-51 -373h166v-157h-191l-35 -260h172v-158h-196l-54 -383h-155l53 383h-199l-51 -383h-158l54 383h-168zM426 541h197l34 260h-196z" />
<glyph unicode="$" d="M123 111l55 194q151 -90 320 -90q98 0 158.5 44t60.5 116q0 69 -53.5 117t-171.5 90q-174 64 -264.5 148.5t-90.5 217.5t88 227.5t242 122.5v199h168v-188q152 -5 283 -70l-56 -188q-139 71 -278 71q-99 0 -147 -42t-48 -101q0 -61 56.5 -104.5t193.5 -96.5 q173 -65 251.5 -154.5t78.5 -226.5q0 -135 -90.5 -235t-253.5 -127v-211h-170v199q-95 3 -185 27.5t-147 60.5z" />
<glyph unicode="%" horiz-adv-x="1720" d="M57 936q0 188 98.5 303t254.5 115q154 0 243.5 -107.5t89.5 -288.5q0 -201 -100.5 -312t-245.5 -111t-242 107t-98 294zM250 944q-2 -118 38.5 -193t112.5 -75q74 0 112 72t38 198q0 77 -14.5 134.5t-49.5 94.5t-88 37q-72 0 -110.5 -75t-38.5 -193zM399 -23l772 1377 h146l-774 -1377h-144zM975 385q0 187 98 301.5t254 114.5t246 -107t90 -288q0 -101 -28.5 -183t-77 -133.5t-110.5 -78.5t-132 -27q-145 0 -242 107t-98 294zM1167 391q-2 -117 39.5 -191.5t114.5 -74.5q74 0 111.5 71t37.5 197q0 120 -36.5 193t-114.5 73q-72 0 -112 -75.5 t-40 -192.5z" />
<glyph unicode="&#x26;" horiz-adv-x="1320" d="M63 369q0 257 267 399v6q-111 131 -111 277q0 66 25 128t71.5 113t121.5 82t167 31q149 0 246.5 -85t97.5 -224q0 -110 -68 -199t-216 -164l-2 -6q195 -225 278 -315q88 135 125 366h225q-60 -344 -215 -518q229 -253 236 -260h-295q-20 20 -57.5 60t-51.5 55 q-160 -138 -389 -138q-110 0 -198.5 33t-143.5 88t-84 124.5t-29 146.5zM303 408q0 -104 70.5 -174t183.5 -70q137 0 231 94q-109 111 -346 383q-139 -99 -139 -233zM446 1075q0 -105 101 -221q95 60 139.5 112.5t44.5 120.5q0 62 -36 109t-103 47q-68 0 -107 -49t-39 -119z " />
<glyph unicode="'" horiz-adv-x="405" d="M86 1417h231l-41 -526h-149z" />
<glyph unicode="(" horiz-adv-x="616" d="M127 586q2 488 250 833h182q-229 -341 -229 -833q0 -478 229 -828h-182q-250 345 -250 828z" />
<glyph unicode=")" horiz-adv-x="616" d="M57 -242q230 348 230 832q0 478 -230 829h183q249 -339 249 -829q-2 -488 -249 -832h-183z" />
<glyph unicode="*" horiz-adv-x="894" d="M61 930v176l312 -53v4l-205 256l156 90l120 -301h5l120 303l154 -90l-209 -258v-4l320 53v-176l-322 49v-6l211 -250l-158 -90l-121 303l-4 -2l-123 -303l-149 92l207 252v6z" />
<glyph unicode="+" horiz-adv-x="1220" d="M82 467v160h444v463h170v-463h445v-160h-445v-467h-170v467h-444z" />
<glyph unicode="," horiz-adv-x="483" d="M16 -248q95 269 138 541l264 20q-45 -148 -108 -298t-122 -246z" />
<glyph unicode="-" horiz-adv-x="645" d="M61 459v174h523v-174h-523z" />
<glyph unicode="." horiz-adv-x="483" d="M104 139q0 70 44 116t112 46q69 0 112.5 -45t43.5 -117q0 -70 -43.5 -116t-114.5 -46q-67 0 -110.5 46.5t-43.5 115.5z" />
<glyph unicode="/" horiz-adv-x="690" d="M18 -80l498 1485h176l-499 -1485h-175z" />
<glyph unicode="0" d="M70 662q0 317 128.5 504.5t358.5 187.5q156 0 264 -89t157.5 -239t49.5 -350q0 -328 -125.5 -513.5t-361.5 -185.5q-149 0 -256 87t-160.5 240t-54.5 358zM324 664q0 -240 60 -367t165 -127q111 0 168 129t57 371q0 237 -55.5 364t-167.5 127q-103 0 -165 -127.5 t-62 -369.5z" />
<glyph unicode="1" d="M193 1171l325 160h209v-1331h-244v1104h-4l-243 -123z" />
<glyph unicode="2" d="M88 0v154l158 145q129 120 206 198t140 157t89.5 143t27.5 129q0 98 -58 160.5t-180 62.5q-137 0 -285 -111l-73 179q76 62 182 99.5t227 37.5q107 0 192.5 -32.5t138.5 -88.5t80.5 -128t27.5 -155q0 -85 -28.5 -166t-87 -161.5t-123.5 -150t-163 -159.5l-115 -100v-4 h545v-209h-901z" />
<glyph unicode="3" d="M82 70l57 190q48 -29 133 -55.5t170 -26.5q69 0 122.5 18.5t84.5 49.5t46.5 67.5t15.5 77.5q0 75 -44.5 127.5t-111 75t-147.5 22.5h-115v185h115q45 0 89.5 10.5t84 32t64 58t24.5 83.5q0 74 -54 121t-159 47q-75 0 -149.5 -25.5t-123.5 -58.5l-57 182q63 42 167.5 72.5 t215.5 30.5q198 0 307 -94t109 -232q0 -106 -62.5 -187.5t-183.5 -123.5v-4q126 -24 209 -112.5t84 -219.5q0 -175 -139 -289.5t-379 -114.5q-114 0 -214 27t-159 66z" />
<glyph unicode="4" d="M39 338v164l545 829h297v-803h172v-190h-172v-338h-238v338h-604zM281 528h362v363q0 71 8 231h-8q-57 -116 -117 -225l-245 -365v-4z" />
<glyph unicode="5" d="M86 55l51 191q50 -27 130 -48.5t163 -21.5q118 0 203.5 64.5t85.5 177.5q0 120 -92.5 187t-284.5 67q-72 0 -182 -13l86 672h690v-209h-512l-39 -266q44 6 94 6q196 0 324 -86q80 -50 127 -136t47 -202q0 -195 -149 -328t-388 -133q-109 0 -202 22.5t-152 55.5z" />
<glyph unicode="6" d="M66 553q0 187 61.5 340t169.5 254q180 174 473 196q72 11 127 7v-199q-54 3 -127 -6q-102 -12 -183 -48t-133.5 -89.5t-84.5 -115.5t-45 -134h6q112 129 299 129q176 0 291.5 -118t115.5 -316q0 -127 -57.5 -235.5t-166 -174.5t-245.5 -66q-119 0 -214.5 43.5t-158 121 t-95.5 182.5t-33 229zM315 485q3 -140 68 -229.5t184 -89.5q96 0 154.5 75.5t58.5 196.5q0 119 -61.5 191.5t-169.5 72.5q-69 0 -128 -38t-89 -99q-17 -34 -17 -80z" />
<glyph unicode="7" d="M109 1122v209h895v-162l-564 -1169h-264l561 1118v4h-628z" />
<glyph unicode="8" d="M70 344q0 234 249 344v6q-101 49 -151.5 126.5t-50.5 168.5q0 161 126.5 263t317.5 102q104 0 186.5 -29t131.5 -77.5t74.5 -107.5t25.5 -122q0 -90 -50.5 -169.5t-154.5 -131.5v-6q115 -43 184.5 -130t69.5 -206q0 -178 -135 -288t-350 -110q-113 0 -204.5 31t-149 83 t-88.5 117t-31 136zM328 373q-3 -89 58.5 -153t164.5 -64q99 0 160 55.5t61 142.5q0 182 -248 250q-93 -26 -144.5 -87.5t-51.5 -143.5zM356 999q0 -148 217 -208q72 21 119 74.5t47 125.5q0 77 -48 133t-142 56q-91 0 -142 -52.5t-51 -128.5z" />
<glyph unicode="9" d="M72 879q0 128 60 236t170.5 173.5t248.5 65.5q152 0 260.5 -74.5t161.5 -201.5t53 -292q0 -399 -231 -620q-177 -163 -455 -182q-75 -8 -152 -4v200q51 -5 140 4q157 13 270 103q135 107 172 297h-4q-108 -117 -291 -117q-175 0 -289 114.5t-114 297.5zM322 893 q0 -106 59 -175t160 -69q73 0 128.5 31t86.5 80q14 32 14 74q0 146 -57.5 239.5t-173.5 93.5q-95 0 -156 -76.5t-61 -197.5z" />
<glyph unicode=":" horiz-adv-x="483" d="M104 137q0 71 43.5 116.5t112.5 45.5t111.5 -45t42.5 -117q0 -69 -43.5 -114.5t-114.5 -45.5q-66 0 -109 46t-43 114zM104 827q0 71 43.5 116.5t112.5 45.5t111.5 -45t42.5 -117q0 -69 -43.5 -114t-114.5 -45q-66 0 -109 45.5t-43 113.5z" />
<glyph unicode=";" horiz-adv-x="483" d="M18 -248q95 269 138 541l262 20q-45 -148 -108 -298t-122 -246zM119 827q0 71 43 116.5t112 45.5t111.5 -45t42.5 -117q0 -69 -43.5 -114t-114.5 -45q-66 0 -108.5 45.5t-42.5 113.5z" />
<glyph unicode="&#x3c;" horiz-adv-x="1220" d="M125 471v147l969 472v-185l-770 -358v-4l770 -359v-184z" />
<glyph unicode="=" horiz-adv-x="1220" d="M82 262v160h1057v-160h-1057zM82 676v160h1057v-160h-1057z" />
<glyph unicode="&#x3e;" horiz-adv-x="1220" d="M125 0v182l782 361v4l-782 360v183l971 -467v-156z" />
<glyph unicode="?" horiz-adv-x="876" d="M100 1321q59 37 143.5 60.5t178.5 23.5q181 0 276 -89.5t95 -221.5q0 -54 -13.5 -101.5t-44 -95t-53 -76t-66.5 -78.5q-114 -131 -108 -276v-45h-223l-2 53q-16 170 123 336q68 82 99.5 136.5t31.5 109.5q0 66 -43 105t-127 40q-55 0 -111.5 -16t-93.5 -45zM236 137 q0 70 43.5 115t111.5 45q69 0 111.5 -44.5t44.5 -115.5q0 -69 -43.5 -114.5t-114.5 -45.5q-67 0 -110 46t-43 114z" />
<glyph unicode="@" horiz-adv-x="1546" d="M96 430q0 157 54.5 299.5t151.5 250t240.5 171t311.5 63.5q176 0 315 -76t216 -211.5t77 -305.5q0 -220 -108.5 -354t-268.5 -134q-71 0 -116.5 42.5t-48.5 125.5h-7q-103 -168 -276 -168q-98 0 -161.5 71t-63.5 193q0 127 59 236t170.5 176.5t251.5 67.5q142 0 233 -48 l-63 -374q-37 -198 55 -201q79 -3 144 94t65 264q0 217 -130 353.5t-363 136.5q-121 0 -230 -46.5t-190.5 -130.5t-129.5 -208t-48 -271q0 -253 145 -399.5t377 -146.5q174 0 305 67l35 -104q-163 -78 -371 -78q-127 0 -241.5 45.5t-201 127t-137.5 204t-51 268.5zM586 414 q0 -65 30.5 -102.5t88.5 -37.5q69 0 130 74t76 168l35 211q-36 12 -80 12q-116 0 -198 -96t-82 -229z" />
<glyph unicode="A" horiz-adv-x="1302" d="M43 0l442 1380h322l448 -1380h-272l-125 391h-436l-119 -391h-260zM463 582h354l-108 340q-25 77 -70 258h-4q-52 -209 -66 -258z" />
<glyph unicode="B" horiz-adv-x="1179" d="M145 4v1356q155 31 369 31q139 0 231.5 -20.5t161.5 -67.5q67 -40 105.5 -107t38.5 -154q0 -97 -60 -177t-170 -120v-6q118 -30 198.5 -118.5t80.5 -221.5q0 -172 -131 -286q-148 -127 -514 -127q-161 0 -310 18zM395 182q33 -6 133 -6q63 0 116.5 12.5t97.5 38.5 t69 71.5t25 107.5q0 115 -87.5 171t-228.5 56h-125v-451zM395 815h129q129 0 201 54.5t72 144.5q0 96 -67.5 143t-190.5 47q-99 0 -144 -10v-379z" />
<glyph unicode="C" horiz-adv-x="1204" d="M72 674q0 167 56 305t155 230.5t234.5 143t293.5 50.5q113 0 200.5 -19t133.5 -43l-53 -200q-121 53 -271 53q-217 0 -350 -132.5t-133 -375.5q0 -231 127 -364.5t354 -133.5q158 0 275 50l41 -199q-51 -25 -147 -43.5t-212 -18.5q-326 0 -515 189t-189 508z" />
<glyph unicode="D" horiz-adv-x="1398" d="M145 4v1358q205 29 402 29q369 0 561 -160q217 -175 217 -508q0 -354 -215 -549q-206 -188 -625 -188q-189 0 -340 18zM397 190q35 -6 140 -6h7q244 0 378 134q136 136 137 397v7q0 222 -126 346q-128 126 -364 126q-107 0 -172 -14v-990z" />
<glyph unicode="E" horiz-adv-x="1054" d="M145 0v1380h803v-206h-551v-357h521v-205h-521v-405h582v-207h-834z" />
<glyph unicode="F" horiz-adv-x="1042" d="M145 0v1380h799v-206h-547v-381h508v-205h-508v-588h-252z" />
<glyph unicode="G" horiz-adv-x="1363" d="M74 678q1 216 97.5 379t270 250.5t400.5 87.5q118 0 215 -19.5t151 -46.5l-55 -203q-130 60 -313 60q-227 0 -364.5 -130t-137.5 -366q0 -232 130.5 -366t348.5 -134q127 0 191 27v346h-244v199h487v-699q-80 -30 -199 -53.5t-243 -23.5q-350 0 -543 184 q-92 88 -142 219.5t-50 288.5z" />
<glyph unicode="H" horiz-adv-x="1376" d="M145 0v1380h252v-553h584v553h252v-1380h-252v608h-584v-608h-252z" />
<glyph unicode="I" horiz-adv-x="540" d="M145 0v1380h252v-1380h-252z" />
<glyph unicode="J" horiz-adv-x="802" d="M2 10l31 203q73 -25 155 -25q115 0 173.5 67.5t58.5 238.5v886h252v-895q0 -140 -32.5 -240t-94.5 -157.5t-143 -84t-187 -26.5q-122 0 -213 33z" />
<glyph unicode="K" horiz-adv-x="1191" d="M145 0v1380h250v-635h6q34 54 101 150l362 485h310l-476 -587l506 -793h-295l-389 633l-125 -148v-485h-250z" />
<glyph unicode="L" horiz-adv-x="1009" d="M145 0v1380h252v-1169h568v-211h-820z" />
<glyph unicode="M" horiz-adv-x="1693" d="M111 0l92 1380h332l180 -555q73 -241 127 -479h6q62 253 137 481l191 553h327l80 -1380h-246l-26 563q-17 377 -17 547v33h-6q-69 -259 -164 -529l-202 -598h-193l-184 590q-82 273 -139 537h-5q-12 -366 -24 -588l-31 -555h-235z" />
<glyph unicode="N" horiz-adv-x="1384" d="M143 0v1380h289l356 -592q149 -255 236 -462h4q-22 225 -22 573v481h233v-1380h-262l-361 608q-154 265 -245 475l-9 -2q15 -267 15 -587v-494h-234z" />
<glyph unicode="O" horiz-adv-x="1441" d="M74 680q0 211 82.5 376t232.5 257t342 92q147 0 268.5 -54t202 -148t124.5 -222t44 -276q0 -170 -49.5 -308.5t-137.5 -230t-209 -140.5t-263 -49q-192 0 -337.5 91.5t-222.5 251t-77 360.5zM340 686q0 -143 44.5 -256.5t132.5 -181.5t206 -68q119 0 206.5 69t131 185 t43.5 262q0 134 -41.5 246.5t-130 186t-209.5 73.5q-91 0 -164.5 -40.5t-121 -111t-72.5 -163.5t-25 -201z" />
<glyph unicode="P" horiz-adv-x="1144" d="M145 0v1362q167 29 385 29q272 0 406 -113q63 -52 99 -131t36 -174q0 -197 -117 -311q-153 -150 -436 -150q-79 0 -123 10v-522h-250zM395 721q40 -12 123 -12q142 0 222.5 67t80.5 187q0 114 -73.5 173.5t-206.5 59.5q-92 0 -146 -12v-463z" />
<glyph unicode="Q" horiz-adv-x="1441" d="M74 678q0 212 82 377.5t232 257.5t345 92q194 0 340.5 -93.5t221.5 -250.5t75 -354q0 -240 -98.5 -406.5t-257.5 -230.5v-9q165 -46 364 -81l-71 -201q-281 77 -539 178q-41 17 -90 20q-122 6 -229.5 54t-192 133.5t-133.5 218t-49 295.5zM340 686q0 -140 44.5 -253.5 t133 -183t205.5 -69.5q118 0 205.5 68.5t131.5 184.5t44 263q0 135 -41.5 247.5t-129.5 185.5t-208 73q-122 0 -211 -72.5t-131.5 -187.5t-42.5 -256z" />
<glyph unicode="R" horiz-adv-x="1165" d="M145 0v1360q165 31 381 31q292 0 426 -111q119 -99 119 -279q0 -126 -72.5 -216.5t-179.5 -127.5v-6q140 -52 193 -266q10 -40 25.5 -99.5t25 -96.5t20.5 -78.5t20 -68.5t17 -42h-258q-39 80 -92 326q-30 134 -85 186t-163 55h-127v-567h-250zM395 752h150 q127 0 200.5 62t73.5 165q0 110 -71 165.5t-197 55.5q-106 0 -156 -12v-436z" />
<glyph unicode="S" horiz-adv-x="1062" d="M84 66l57 208q65 -38 153.5 -63t180.5 -25q118 0 184 51.5t66 137.5q0 77 -56 129t-188 100q-182 65 -278.5 162t-96.5 240q0 173 134 285t356 112q194 0 330 -70l-60 -203q-125 66 -276 66q-112 0 -170 -49t-58 -117q0 -76 58.5 -122.5t206.5 -104.5q183 -69 268.5 -166 t85.5 -244q0 -85 -32.5 -159t-95 -132t-164 -91.5t-230.5 -33.5q-106 0 -210.5 26t-164.5 63z" />
<glyph unicode="T" horiz-adv-x="1075" d="M16 1169v211h1043v-211h-397v-1169h-252v1169h-394z" />
<glyph unicode="U" horiz-adv-x="1363" d="M143 590v790h252v-805q0 -197 75.5 -296t207.5 -99q140 0 215.5 98.5t75.5 296.5v805h252v-788q0 -310 -146.5 -462.5t-404.5 -152.5q-250 0 -388.5 149.5t-138.5 463.5z" />
<glyph unicode="V" horiz-adv-x="1230" d="M14 1380h275l188 -628q96 -316 135 -502h4q40 175 142 500l200 630h269l-477 -1380h-289z" />
<glyph unicode="W" horiz-adv-x="1779" d="M31 1380h268l131 -626q47 -224 90 -482h4q18 114 101 484l149 624h264l138 -635q65 -322 84 -466h4q32 193 94 479l143 622h256l-373 -1380h-268l-143 649q-56 251 -78 438h-4q-36 -230 -90 -438l-160 -649h-272z" />
<glyph unicode="X" horiz-adv-x="1216" d="M41 0l410 698l-396 682h291l150 -284q55 -106 112 -232h6q51 120 109 232l147 284h289l-403 -673l420 -707h-293l-148 274q-66 119 -139 261h-4q-40 -98 -125 -261l-137 -274h-289z" />
<glyph unicode="Y" horiz-adv-x="1177" d="M23 1380h288l164 -354q73 -159 121 -274h4q39 103 119 274l166 354h284l-458 -798v-582h-252v575z" />
<glyph unicode="Z" horiz-adv-x="1159" d="M53 0v139l705 1026v6h-643v209h970v-147l-696 -1018v-6h707v-209h-1043z" />
<glyph unicode="[" horiz-adv-x="616" d="M152 -229v1634h399v-145h-213v-1344h213v-145h-399z" />
<glyph unicode="\" horiz-adv-x="686" d="M14 1405h176l480 -1485h-176z" />
<glyph unicode="]" horiz-adv-x="616" d="M63 -84h213v1344h-213v145h400v-1634h-400v145z" />
<glyph unicode="^" horiz-adv-x="1220" d="M104 373l426 958h162l426 -958h-186l-320 760h-4l-319 -760h-185z" />
<glyph unicode="_" horiz-adv-x="1024" d="M0 -154h1024v-102h-1024v102z" />
<glyph unicode="`" horiz-adv-x="614" d="M25 1430h245l179 -304h-175z" />
<glyph unicode="a" horiz-adv-x="1040" d="M66 274q0 185 156 282q152 95 424 95h11v17q0 30 -7.5 56t-27 55t-62.5 46t-105 17q-72 0 -144.5 -20.5t-124.5 -53.5l-49 164q62 38 156 63t205 25q115 0 198 -34.5t128 -95.5t65 -133t20 -159v-358q0 -154 17 -240h-228l-18 111h-6q-46 -61 -123 -97.5t-172 -36.5 q-144 0 -228.5 88t-84.5 209zM315 301q0 -70 40 -106.5t104 -36.5q73 0 125.5 39.5t72.5 97.5q7 21 7 55v137h-14q-335 0 -335 -186z" />
<glyph unicode="b" horiz-adv-x="1198" d="M127 0q8 136 8 281v1173h252v-594h4q47 75 129 117.5t191 42.5q184 0 300 -140q115 -139 115 -362q0 -108 -25.5 -197t-69 -151.5t-101.5 -106.5t-123 -65t-133 -21q-215 0 -316 173h-4l-12 -150h-215zM387 412q0 -33 6 -60q21 -78 81.5 -127t141.5 -49q118 0 186 88 t68 240q0 139 -65.5 229t-186.5 90q-77 0 -140 -51t-83 -133q-8 -36 -8 -66v-161z" />
<glyph unicode="c" horiz-adv-x="919" d="M72 489q0 112 38 209t108 168.5t175.5 112.5t233.5 41q140 0 243 -45l-45 -191q-80 39 -190 39q-141 1 -224 -91q-81 -89 -81 -225v-7q0 -150 86 -236t219 -86q103 0 199 39l34 -186q-108 -51 -282 -51q-233 0 -373.5 138.5t-140.5 370.5z" />
<glyph unicode="d" horiz-adv-x="1189" d="M72 491q0 239 128 383q130 146 318 146q99 0 172.5 -35.5t108.5 -93.5h4v563h252v-1173q0 -145 8 -281h-223l-13 158h-4q-45 -84 -130.5 -132.5t-192.5 -48.5q-183 0 -305.5 141.5t-122.5 372.5zM328 498q0 -142 66.5 -230t183.5 -88q78 0 138 48.5t79 129.5q8 31 8 74 v150q0 37 -6 67q-18 76 -76 126t-141 50q-118 0 -185 -92t-67 -235z" />
<glyph unicode="e" horiz-adv-x="1056" d="M72 483q0 105 32 200.5t91.5 171t153.5 120.5t210 45q94 0 169 -29.5t123 -77.5t80 -112.5t45 -130.5t13 -135q0 -61 -8 -107h-668q3 -87 47 -146.5t110.5 -85.5t150.5 -26q146 0 276 45l37 -172q-146 -63 -348 -63q-241 0 -377.5 136t-136.5 367zM313 604h439v7 q0 35 -8 71q-10 39 -31.5 78t-65 63.5t-102.5 24.5q-56 0 -100.5 -23.5t-71 -61t-41.5 -78t-19 -81.5z" />
<glyph unicode="f" horiz-adv-x="653" d="M29 809v188h135v43q0 225 121 340q103 97 260 97q79 0 160 -25l-17 -195q-55 19 -108 19q-88 0 -127 -62.5t-39 -164.5v-52h217v-188h-215v-809h-252v809h-135z" />
<glyph unicode="g" horiz-adv-x="1173" d="M72 494q0 120 37 220t99 166.5t144 103t172 36.5q200 0 289 -156h4l10 133h220q-9 -153 -9 -286v-566q0 -319 -147 -452q-134 -121 -385 -121q-97 0 -190.5 21t-157.5 59l55 190q128 -75 291 -75q131 0 209 73.5t78 227.5v86h-5q-44 -69 -118.5 -108.5t-171.5 -39.5 q-186 0 -305 137.5t-119 350.5zM328 502q0 -133 64.5 -220t178.5 -87q71 0 127 42t78 111q10 31 10 88v162q0 41 -8 68q-21 72 -74.5 116.5t-130.5 44.5q-108 0 -176.5 -88t-68.5 -237z" />
<glyph unicode="h" horiz-adv-x="1171" d="M135 0v1454h252v-592h4q47 72 125 113q79 45 174 45q67 0 126.5 -23.5t110.5 -72t81 -135t30 -201.5v-588h-252v561q0 115 -46.5 184.5t-145.5 69.5q-70 0 -122 -40t-75 -101q-10 -29 -10 -76v-598h-252z" />
<glyph unicode="i" horiz-adv-x="524" d="M121 1276q0 59 39.5 98t101.5 39q63 0 101 -38.5t40 -98.5q0 -57 -39.5 -96t-103.5 -39q-62 0 -100.5 39t-38.5 96zM135 0v997h252v-997h-252z" />
<glyph unicode="j" horiz-adv-x="552" d="M-86 -240q128 9 188 72q36 39 51 113t15 233v819h252v-891q0 -154 -31.5 -255.5t-99.5 -169.5q-61 -58 -155.5 -87.5t-194.5 -29.5zM154 1276q0 59 39.5 98t103.5 39q62 0 99.5 -38.5t39.5 -98.5q0 -58 -39 -96.5t-104 -38.5q-63 0 -101 39t-38 96z" />
<glyph unicode="k" horiz-adv-x="1042" d="M135 0v1454h252v-895h4q49 76 78 117l244 321h303l-371 -407l422 -590h-309l-287 440l-84 -100v-340h-252z" />
<glyph unicode="l" horiz-adv-x="526" d="M135 0v1454h252v-1454h-252z" />
<glyph unicode="m" horiz-adv-x="1736" d="M127 997h215l12 -147h6q102 170 308 170q97 0 170 -50t106 -134h4q51 80 121 125q86 59 205 59q65 0 122 -23.5t105 -72t76.5 -135t28.5 -201.5v-588h-246v551q0 127 -44.5 195.5t-133.5 68.5q-61 0 -107.5 -37.5t-68.5 -95.5q-13 -37 -13 -84v-598h-245v578 q0 108 -44 172.5t-129 64.5q-65 0 -113 -41.5t-69 -99.5q-12 -40 -12 -84v-590h-246v700q0 125 -8 297z" />
<glyph unicode="n" horiz-adv-x="1171" d="M127 997h219l12 -149h7q40 69 122.5 120.5t196.5 51.5q69 0 129.5 -23.5t112 -71.5t82 -134t30.5 -199v-592h-252v563q0 115 -46 183.5t-144 68.5q-71 0 -123 -42.5t-74 -104.5q-12 -30 -12 -80v-588h-252v700q0 125 -8 297z" />
<glyph unicode="o" horiz-adv-x="1155" d="M72 492q0 242 143.5 385t372.5 143q222 0 358.5 -142t136.5 -370q0 -132 -44 -236.5t-117.5 -167.5t-163 -95t-187.5 -32q-216 0 -357.5 139.5t-141.5 375.5zM332 498q0 -147 68 -242.5t180 -95.5q107 0 175 95t68 247q0 61 -14 118.5t-41.5 107.5t-75.5 80t-110 30 q-64 0 -113.5 -29.5t-78.5 -79t-43.5 -108t-14.5 -123.5z" />
<glyph unicode="p" horiz-adv-x="1198" d="M127 997h221l12 -153h5q115 176 342 176q86 0 162 -36t133 -101t90.5 -161t33.5 -210q0 -130 -38.5 -234.5t-103.5 -168.5t-145 -98t-167 -34q-92 0 -167 36.5t-114 97.5h-4v-517h-252v1072q0 143 -8 331zM387 418q0 -36 6 -70q21 -78 81.5 -127t141.5 -49 q119 0 186.5 90t67.5 240q0 138 -65 228.5t-182 90.5q-79 0 -143.5 -52t-84.5 -134q-8 -40 -8 -64v-153z" />
<glyph unicode="q" horiz-adv-x="1189" d="M72 483q0 131 39.5 237t104 169.5t142.5 97t160 33.5q101 0 175.5 -41t115.5 -113l4 -2l6 133h244q-8 -180 -8 -288v-1115h-252v543h-4q-46 -75 -125 -117.5t-185 -42.5q-174 0 -295.5 139.5t-121.5 366.5zM328 496q0 -141 65 -230.5t182 -89.5q76 0 135 45.5t81 120.5 q12 35 12 78v166q0 34 -6 61q-18 74 -76 124t-139 50q-120 0 -187 -90t-67 -235z" />
<glyph unicode="r" horiz-adv-x="729" d="M127 997h217l10 -188h6q35 100 112 155.5t163 55.5q29 0 59 -6v-236q-35 6 -76 6q-88 0 -148 -51.5t-77 -138.5q-6 -35 -6 -76v-518h-252v676q0 204 -8 321z" />
<glyph unicode="s" horiz-adv-x="854" d="M74 49l51 184q45 -28 117.5 -50.5t136.5 -22.5q80 0 120 30t40 82q0 50 -35 81t-129 65q-141 48 -208 123t-67 168q0 135 103.5 223t273.5 88q161 0 266 -59l-51 -177q-37 23 -94 40.5t-117 17.5q-66 0 -102.5 -30t-36.5 -77q0 -46 37 -74t137 -65q137 -47 201 -120 t65 -183q0 -141 -106 -227t-299 -86q-178 0 -303 69z" />
<glyph unicode="t" horiz-adv-x="718" d="M35 809v188h141v187l248 69v-256h240v-188h-240v-440q0 -95 29.5 -140t99.5 -45q58 0 98 11l4 -191q-71 -27 -182 -27q-141 0 -217 82q-80 83 -80 281v469h-141z" />
<glyph unicode="u" horiz-adv-x="1165" d="M131 412v585h252v-542q0 -273 186 -273q71 0 121.5 39.5t71.5 95.5q14 28 14 78v602h252v-698q0 -135 8 -299h-219l-12 150h-6q-18 -30 -44 -57t-64.5 -55t-94 -44.5t-119.5 -16.5q-71 0 -130.5 23t-109.5 71.5t-78 135.5t-28 205z" />
<glyph unicode="v" horiz-adv-x="1040" d="M23 997h272l162 -505q36 -110 67 -250h6q19 87 68 250l160 505h264l-381 -997h-248z" />
<glyph unicode="w" horiz-adv-x="1533" d="M29 997h258l102 -452q42 -177 66 -324h4q7 38 18 84t19 77t22.5 85t20.5 76l131 454h204l125 -442q47 -177 80 -334h4q14 108 66 334l111 442h247l-313 -997h-233l-119 406q-42 142 -76 319h-4q-32 -169 -76 -319l-127 -406h-235z" />
<glyph unicode="x" horiz-adv-x="1011" d="M10 0l346 508l-333 489h280l119 -188q28 -45 90 -154h4q53 100 88 158l111 184h274l-334 -479l340 -518h-286l-121 199q-33 54 -90 161h-4q-13 -25 -28 -52t-33.5 -58.5t-29.5 -50.5l-114 -199h-279z" />
<glyph unicode="y" horiz-adv-x="1024" d="M16 997h279l178 -534q35 -107 57 -193h7q36 142 53 195l155 532h269l-250 -680q-102 -277 -179.5 -420.5t-166.5 -220.5q-127 -109 -264 -127l-58 211q73 17 146 70q38 24 76 66t63 92q14 25 14 45q0 19 -12 49z" />
<glyph unicode="z" horiz-adv-x="921" d="M41 0v145l375 480q76 91 145 168v4h-483v200h790v-153l-364 -469q-98 -118 -148 -170v-4h525v-201h-840z" />
<glyph unicode="{" horiz-adv-x="616" d="M59 522v133q50 1 84 14t49.5 36t21 45t5.5 51q0 56 -12 166q-14 96 -14 166q0 138 80.5 205t224.5 67h57v-145h-37q-75 -1 -108 -41.5t-33 -118.5q0 -37 12 -131q12 -90 12 -146q1 -105 -39 -158t-122 -73v-4q81 -20 121.5 -74.5t39.5 -157.5q0 -59 -12 -149t-12 -129 q0 -79 33.5 -120t109.5 -42h35v-145h-59q-303 0 -303 280q0 68 14 164q12 110 12 162q0 27 -5.5 48t-20.5 45t-49 37.5t-85 14.5z" />
<glyph unicode="|" horiz-adv-x="538" d="M178 -512v2048h182v-2048h-182z" />
<glyph unicode="}" horiz-adv-x="616" d="M59 -84h35q76 1 110 42t34 120q0 31 -13 129q-12 90 -12 149q-1 103 39.5 157.5t122.5 74.5v4q-82 20 -122.5 73.5t-39.5 157.5q0 56 12 146q13 102 13 131q0 78 -33.5 118.5t-108.5 41.5h-37v145h58q144 0 224.5 -67t80.5 -205q0 -56 -12 -166q-15 -103 -15 -166 q0 -29 5.5 -51t20.5 -45t49 -36t85 -14v-133q-160 -2 -160 -145q0 -59 15 -162q12 -110 12 -164q0 -280 -303 -280h-60v145z" />
<glyph unicode="~" horiz-adv-x="1220" d="M94 412q-3 174 70 261t196 87q65 0 123 -20.5t166 -73.5q86 -46 132.5 -65t88.5 -19q91 0 97 170h161q4 -96 -15 -166t-56 -110t-83 -58.5t-102 -18.5q-63 0 -125 21.5t-165 73.5q-122 66 -163 79q-29 9 -54 9q-101 0 -109 -170h-162z" />
<glyph unicode="&#xa1;" horiz-adv-x="514" d="M102 846q0 70 44 115t114 45q67 0 109.5 -45.5t42.5 -114.5q0 -70 -43 -115t-113 -45q-67 0 -110.5 45.5t-43.5 114.5zM125 -395l39 948h190l37 -948h-266z" />
<glyph unicode="&#xa2;" d="M145 670q0 194 111.5 334.5t304.5 173.5v200h168v-192q114 -3 207 -45l-45 -189q-80 43 -197 43q-133 0 -213 -89t-80 -226q0 -147 83 -230t208 -83q122 0 217 43l35 -183q-87 -44 -215 -53v-201h-168v205q-183 22 -301 150q-115 131 -115 342z" />
<glyph unicode="&#xa3;" d="M109 0v137q97 46 163 134.5t66 193.5q0 69 -8 108h-203v175h174q-18 124 -18 190q0 188 120 302t312 114q147 0 231 -49l-45 -191q-76 39 -176 39q-108 0 -157.5 -61.5t-49.5 -161.5q0 -88 23 -182h286v-175h-264q4 -116 -14 -182q-28 -99 -119 -180v-4h576v-207h-897z " />
<glyph unicode="&#xa4;" d="M47 1079l117 119l149 -166q93 80 238 80q141 0 235 -78l152 164l117 -119l-170 -153q67 -101 67 -240q0 -148 -71 -250l163 -157l-114 -117l-146 170q-46 -40 -110.5 -62t-128.5 -22t-129 21.5t-105 58.5l-143 -166l-115 117l162 151q-76 102 -76 248q0 141 76 248z M334 680q0 -64 19.5 -115.5t51 -82t67.5 -46.5t73 -16q86 0 149.5 67t63.5 197q0 108 -58 182t-155 74q-93 0 -152 -73.5t-59 -186.5z" />
<glyph unicode="&#xa5;" d="M18 1331h271l174 -370q39 -85 84 -207h4l33 82q32 83 53 129l180 366h264l-356 -600h254v-125h-322v-139h322v-125h-322v-342h-237v342h-318v125h318v139h-318v125h254z" />
<glyph unicode="&#xa6;" horiz-adv-x="538" d="M178 356h182v-716h-182v716zM178 664v716h182v-716h-182z" />
<glyph unicode="&#xa7;" horiz-adv-x="1110" d="M104 670q0 68 41 134t121 111q-33 26 -56.5 76.5t-23.5 104.5q0 142 117.5 223.5t298.5 81.5q177 0 305 -64l-47 -157q-108 61 -258 61q-90 0 -143 -33.5t-53 -89.5q0 -57 54.5 -92t180.5 -74q87 -28 146 -54.5t112.5 -66.5t80 -95.5t26.5 -127.5q0 -151 -142 -248 q34 -28 60 -77t26 -109q0 -67 -26 -122t-69 -90.5t-99.5 -59.5t-114 -34.5t-117.5 -10.5q-222 0 -356 88l55 155q51 -32 130.5 -58t162.5 -26q92 0 148.5 35t56.5 99q0 59 -51 97.5t-181 82.5q-72 23 -123.5 44t-104 51t-84.5 63.5t-52.5 80t-20.5 101.5zM303 709 q0 -53 46 -95.5t149 -78.5q197 -69 239 -93q31 22 49.5 56.5t18.5 72.5q0 108 -160 168q-20 7 -65.5 23.5t-74 27t-63.5 24.5t-57 26q-82 -51 -82 -131z" />
<glyph unicode="&#xa8;" horiz-adv-x="614" d="M-23 1278q0 54 37 90.5t92 36.5q51 0 86 -36t35 -91q0 -52 -35.5 -88.5t-89.5 -36.5q-53 0 -89 36.5t-36 88.5zM385 1278q0 54 36.5 90.5t90.5 36.5q53 0 88 -36t35 -91q0 -52 -35 -88.5t-88 -36.5h-4q-52 0 -87.5 36.5t-35.5 88.5z" />
<glyph unicode="&#xa9;" horiz-adv-x="1386" d="M68 696q0 128 49.5 245t133.5 201.5t200.5 134.5t246.5 50q170 0 313 -84.5t225.5 -230t82.5 -316.5q0 -173 -82.5 -319t-226 -231t-314.5 -85q-172 0 -316.5 85t-228 231t-83.5 319zM188 692q0 -221 147 -374.5t359 -153.5q138 -1 254 69t183 192.5t67 268.5 q0 145 -67 267.5t-183.5 193t-255.5 70.5q-138 0 -254 -71t-183 -193.5t-67 -268.5zM350 684q0 169 116 275t279 106q72 0 138 -17.5t88 -37.5l-27 -99q-28 16 -82.5 31.5t-116.5 15.5q-127 0 -197.5 -72.5t-70.5 -195.5q0 -118 73 -194t198 -76q127 0 204 51l29 -92 q-97 -66 -254 -66q-175 0 -276 104.5t-101 266.5z" />
<glyph unicode="&#xaa;" horiz-adv-x="743" d="M68 733q0 115 108 177t299 59v16q0 13 -5 27t-17.5 32t-42.5 29.5t-72 11.5q-109 0 -184 -53l-37 113q102 65 254 65q78 0 134.5 -23t87.5 -63.5t45.5 -90t14.5 -109.5v-219q0 -81 11 -160h-160l-12 76h-5q-82 -86 -204 -86q-99 0 -157 56t-58 142zM244 745 q0 -40 29.5 -65t72.5 -25q37 0 70 19.5t49 48.5q14 25 14 49v90q-64 1 -114.5 -8.5t-85.5 -37t-35 -71.5z" />
<glyph unicode="&#xab;" horiz-adv-x="909" d="M55 516l252 385h185l-256 -385l258 -383h-187zM426 516l252 385h184l-258 -385l258 -383h-184z" />
<glyph unicode="&#xac;" horiz-adv-x="1220" d="M82 684v160h1057v-613h-168v453h-889z" />
<glyph unicode="&#xad;" horiz-adv-x="595" d="M61 459v174h523v-174h-523z" />
<glyph unicode="&#xae;" horiz-adv-x="903" d="M96 1057q0 143 105 243.5t254 100.5q147 0 249.5 -100.5t102.5 -243.5q0 -146 -102.5 -247t-251.5 -101q-148 0 -252.5 101t-104.5 247zM195 1055q0 -111 74.5 -189t183.5 -78q109 -1 182.5 77t73.5 190q0 113 -73.5 189.5t-186.5 76.5q-107 0 -180.5 -77t-73.5 -189z M313 885v329q59 13 138 13q83 0 122 -27q35 -21 35 -70q0 -27 -19.5 -47.5t-51.5 -29.5v-4q48 -16 63 -84q13 -59 23 -80h-99q-9 11 -24 76q-8 49 -62 49h-35v-125h-90zM406 1073h32q70 0 70 45t-64 45q-9 0 -22 -1t-16 -1v-88z" />
<glyph unicode="&#xaf;" horiz-adv-x="614" d="M63 1196v145h490v-145h-490z" />
<glyph unicode="&#xb0;" horiz-adv-x="694" d="M55 1112q0 124 86 208.5t211 84.5q128 0 209.5 -83.5t81.5 -201.5q0 -126 -88 -208.5t-207 -82.5q-127 0 -210 82t-83 201zM197 1112q0 -68 43.5 -115t107.5 -47q67 0 110.5 48t43.5 120q0 65 -41 115.5t-115 50.5q-68 0 -108.5 -51t-40.5 -121z" />
<glyph unicode="&#xb1;" horiz-adv-x="1220" d="M82 0v160h1059v-160h-1059zM82 645v160h444v373h170v-373h445v-160h-445v-383h-170v383h-444z" />
<glyph unicode="&#xb2;" horiz-adv-x="681" d="M27 907v97l127 116q70 63 108.5 100t74 78.5t50 75t14.5 68.5q0 53 -35 86t-100 33q-89 0 -174 -60l-55 127q49 38 122.5 62t155.5 24q142 0 217.5 -68.5t75.5 -170.5q0 -44 -14.5 -86t-33.5 -74t-57 -72.5t-67 -66.5t-80 -70l-55 -47v-4h322v-148h-596z" />
<glyph unicode="&#xb3;" horiz-adv-x="671" d="M18 954l43 133q32 -20 88 -36.5t107 -16.5q74 0 118 33.5t44 79.5q0 59 -57 90t-138 31h-59v118h55q66 0 119 26t53 79q0 37 -29.5 61.5t-87.5 24.5q-99 0 -180 -53l-41 127q43 27 114 45t150 18q133 0 204 -56.5t71 -139.5q0 -63 -44.5 -112t-117.5 -71v-4 q86 -11 140.5 -63t54.5 -129q0 -105 -95 -173.5t-254 -68.5q-78 0 -147.5 16t-110.5 41z" />
<glyph unicode="&#xb4;" horiz-adv-x="614" d="M178 1126l178 304h246l-250 -304h-174z" />
<glyph unicode="&#xb5;" horiz-adv-x="1167" d="M135 -41v1038h252v-573q0 -112 45.5 -178t138.5 -66q68 0 121 41t76 94q12 35 12 80v602h252v-696q0 -71 20 -100.5t68 -32.5l-16 -176q-34 -15 -88 -15q-80 0 -133 42t-70 126h-8q-30 -65 -99.5 -113t-164.5 -48q-118 0 -176 82v-103q0 -271 22 -369h-223 q-29 80 -29 365z" />
<glyph unicode="&#xb6;" horiz-adv-x="1083" d="M68 928q-1 57 9.5 109t34.5 105t69 96t108 77t156 52.5t208 18.5q185 0 269 -20v-1464h-166v1323h-146v-1323h-166v639h-14q-54 0 -114 24t-116 69.5t-93.5 122.5t-38.5 171z" />
<glyph unicode="&#xb7;" horiz-adv-x="483" d="M86 535q0 70 44 115.5t112 45.5q69 0 112 -44.5t43 -116.5q0 -70 -43 -116t-114 -46q-67 0 -110.5 46.5t-43.5 115.5z" />
<glyph unicode="&#xb8;" horiz-adv-x="614" d="M102 -375l37 101q60 -31 111 -31q80 0 80 57q0 68 -160 80l92 174h141l-59 -102q60 -8 102.5 -47.5t42.5 -98.5q0 -89 -65.5 -130.5t-167.5 -41.5q-93 0 -154 39z" />
<glyph unicode="&#xb9;" horiz-adv-x="563" d="M45 1612l211 94h172v-799h-197v635h-2l-155 -72z" />
<glyph unicode="&#xba;" horiz-adv-x="761" d="M43 866q0 155 96.5 249.5t245.5 94.5q151 0 242.5 -93t91.5 -238q-1 -85 -30 -152.5t-77.5 -108.5t-108 -62t-124.5 -21q-144 0 -240 91t-96 240zM225 870q0 -88 44.5 -147t111.5 -59q69 0 111.5 58t42.5 152q0 49 -15.5 94.5t-53 79t-89.5 33.5q-73 0 -112.5 -65 t-39.5 -146z" />
<glyph unicode="&#xbb;" horiz-adv-x="909" d="M47 133l258 383l-258 385h182l254 -385l-254 -383h-182zM412 901h184l254 -385l-254 -383h-182l256 383z" />
<glyph unicode="&#xbc;" horiz-adv-x="1636" d="M80 1249l211 94h172v-798h-197v635h-2l-155 -72zM322 -23l765 1377h146l-766 -1377h-145zM860 197v106l371 504h217v-481h115v-129h-115v-197h-182v197h-406zM1044 328l5 -2h217v190q0 55 8 141h-6q-44 -83 -72 -122z" />
<glyph unicode="&#xbd;" horiz-adv-x="1636" d="M53 1249l211 94h172v-798h-196v635h-2l-156 -72zM279 -23l763 1377h144l-762 -1377h-145zM950 0v98l129 115q140 128 193 193t53 131q0 53 -35 85.5t-100 32.5q-91 0 -174 -59l-53 127q49 38 121.5 62t154.5 24q142 0 217.5 -69t75.5 -171q0 -54 -18 -102t-59 -96.5 t-75.5 -81t-99.5 -88.5l-55 -49v-5h321v-147h-596z" />
<glyph unicode="&#xbe;" horiz-adv-x="1636" d="M57 592l43 133q32 -20 88 -36.5t107 -16.5q74 0 118 33.5t44 78.5q0 60 -56.5 90.5t-138.5 32.5h-59v119h57q66 0 119 25.5t53 78.5q0 37 -30 62t-89 25q-87 0 -178 -52l-41 123q43 28 113 47t149 19q134 0 205.5 -56.5t71.5 -140.5q0 -63 -44.5 -111.5t-119.5 -72.5v-4 q86 -11 140.5 -63.5t54.5 -129.5q0 -105 -94.5 -173t-254.5 -68q-78 0 -147.5 16t-110.5 41zM393 -23l764 1377h146l-764 -1377h-146zM881 197v106l370 504h217v-481h115v-129h-115v-197h-182v197h-405zM1065 328l4 -2h217v190q0 55 8 141h-6q-47 -89 -69 -122z" />
<glyph unicode="&#xbf;" horiz-adv-x="876" d="M98 -111q0 54 13.5 102t43.5 95t53 76t66 78q115 132 109 278v43h221l4 -53q13 -171 -125 -336q-65 -77 -97 -133.5t-32 -112.5q0 -66 43 -105t127 -40q53 0 109 16.5t96 44.5l59 -180q-58 -36 -142.5 -60t-176.5 -24q-181 0 -276 89.5t-95 221.5zM342 846q0 70 44 115 t114 45q67 0 110 -45.5t43 -114.5q0 -70 -42.5 -115t-112.5 -45q-69 0 -112.5 45.5t-43.5 114.5z" />
<glyph unicode="&#xc0;" horiz-adv-x="1302" d="M43 0l442 1380h322l448 -1380h-272l-125 391h-436l-119 -391h-260zM319 1700h279l180 -244h-203zM463 582h354l-108 340q-25 77 -70 258h-4q-52 -209 -66 -258z" />
<glyph unicode="&#xc1;" horiz-adv-x="1302" d="M43 0l442 1380h322l448 -1380h-272l-125 391h-436l-119 -391h-260zM463 582h354l-108 340q-25 77 -70 258h-4q-52 -209 -66 -258zM520 1454l180 246h279l-256 -246h-203z" />
<glyph unicode="&#xc2;" horiz-adv-x="1302" d="M43 0l442 1380h322l448 -1380h-272l-125 391h-436l-119 -391h-260zM352 1454l207 244h191l211 -244h-189l-115 133h-4l-114 -133h-187zM463 582h354l-108 340q-25 77 -70 258h-4q-52 -209 -66 -258z" />
<glyph unicode="&#xc3;" horiz-adv-x="1302" d="M43 0l442 1380h322l448 -1380h-270l-125 391h-438l-119 -391h-260zM385 1464q-3 112 37.5 175t112.5 63q57 0 127 -41q68 -39 94 -39t38.5 17.5t16.5 66.5h121q6 -229 -152 -229q-63 0 -129 39q-9 5 -26 14t-24.5 13t-19.5 7.5t-22 3.5q-45 0 -51 -90h-123zM463 582h356 l-110 340q-25 77 -70 258h-4q-52 -209 -66 -258z" />
<glyph unicode="&#xc4;" horiz-adv-x="1302" d="M43 0l442 1380h322l448 -1380h-272l-125 391h-436l-119 -391h-260zM334 1587q0 53 35.5 89t87.5 36q51 0 84.5 -35.5t33.5 -89.5q0 -51 -33.5 -87t-86.5 -36q-52 0 -86.5 36.5t-34.5 86.5zM463 582h354l-108 340q-25 77 -70 258h-4q-52 -209 -66 -258zM739 1587 q0 53 35 89t88 36q51 0 85 -35.5t34 -89.5q0 -51 -34.5 -87t-88.5 -36q-51 0 -85 36t-34 87z" />
<glyph unicode="&#xc5;" horiz-adv-x="1302" d="M43 0l442 1380h322l448 -1380h-272l-125 391h-436l-119 -391h-260zM428 1626q0 83 60.5 139t164.5 56q101 0 159 -55t58 -140q0 -81 -60.5 -135.5t-158.5 -54.5q-100 0 -161.5 55t-61.5 135zM463 582h354l-108 340q-25 77 -70 258h-4q-52 -209 -66 -258zM555 1626 q0 -38 26 -68t66 -30q43 0 69.5 29t26.5 71q0 43 -27 73t-71 30q-41 0 -65.5 -31.5t-24.5 -73.5z" />
<glyph unicode="&#xc6;" horiz-adv-x="1703" d="M2 0l606 1380h967v-206h-574l43 -361h519v-205h-488l51 -401h516v-207h-733l-53 426h-412l-182 -426h-260zM522 629h305l-43 362q-18 139 -24 211h-8q-36 -106 -78 -209z" />
<glyph unicode="&#xc7;" horiz-adv-x="1212" d="M72 674q0 167 56 305t155 230.5t234.5 143t293.5 50.5q113 0 200.5 -19t133.5 -43l-55 -200q-115 53 -269 53q-217 0 -350 -132.5t-133 -375.5q0 -231 126.5 -364.5t352.5 -133.5q160 0 277 50l41 -197q-48 -24 -137.5 -42t-202.5 -19l-43 -76q62 -13 103.5 -54.5 t41.5 -105.5q0 -92 -66.5 -136t-162.5 -44q-98 0 -162 37l37 112q45 -28 112 -28q35 0 57.5 14t22.5 43q0 65 -160 80l82 166q-275 34 -430 215.5t-155 470.5z" />
<glyph unicode="&#xc8;" horiz-adv-x="1054" d="M145 0v1380h803v-206h-551v-357h521v-205h-521v-405h582v-207h-834zM233 1700h279l180 -244h-203z" />
<glyph unicode="&#xc9;" horiz-adv-x="1054" d="M145 0v1380h803v-206h-551v-357h521v-205h-521v-405h582v-207h-834zM424 1454l180 246h279l-256 -246h-203z" />
<glyph unicode="&#xca;" horiz-adv-x="1054" d="M145 0v1380h803v-206h-551v-357h521v-205h-521v-405h582v-207h-834zM248 1454l207 244h190l211 -244h-188l-115 133h-4l-115 -133h-186z" />
<glyph unicode="&#xcb;" horiz-adv-x="1054" d="M145 0v1380h803v-206h-551v-357h521v-205h-521v-405h582v-207h-834zM217 1589q0 53 35.5 89t87.5 36q51 0 85 -35.5t34 -89.5q0 -51 -34 -87t-87 -36q-52 0 -86.5 36.5t-34.5 86.5zM623 1589q0 53 35 89t87 36q51 0 85 -35.5t34 -89.5q0 -51 -34 -87t-87 -36 q-52 0 -86 36t-34 87z" />
<glyph unicode="&#xcc;" horiz-adv-x="540" d="M-53 1700h278l181 -244h-203zM145 0v1380h252v-1380h-252z" />
<glyph unicode="&#xcd;" horiz-adv-x="540" d="M139 1454l180 246h279l-256 -246h-203zM145 0v1380h252v-1380h-252z" />
<glyph unicode="&#xce;" horiz-adv-x="540" d="M-33 1454l207 244h191l210 -244h-188l-115 133h-4l-114 -133h-187zM145 0v1380h252v-1380h-252z" />
<glyph unicode="&#xcf;" horiz-adv-x="540" d="M-53 1589q0 53 35.5 89t87.5 36q51 0 84.5 -35.5t33.5 -89.5q0 -51 -33.5 -87t-86.5 -36q-52 0 -86.5 36.5t-34.5 86.5zM145 0v1380h252v-1380h-252zM352 1589q0 53 35 89t88 36q51 0 85 -35.5t34 -89.5q0 -51 -34.5 -87t-88.5 -36q-51 0 -85 36t-34 87z" />
<glyph unicode="&#xd0;" horiz-adv-x="1411" d="M2 602v199h156v567q205 29 401 29q374 0 563 -158q217 -175 217 -516q0 -354 -215 -553q-209 -188 -626 -188q-189 0 -340 18v602h-156zM410 186q35 -6 141 -6q251 0 386.5 136.5t135.5 400.5q1 235 -125.5 359t-365.5 124q-107 0 -172 -14v-385h317v-199h-317v-416z" />
<glyph unicode="&#xd1;" horiz-adv-x="1384" d="M143 0v1380h289l356 -592q149 -255 236 -462h4q-22 225 -22 573v481h233v-1380h-262l-361 608q-154 265 -245 475l-9 -2q15 -267 15 -587v-494h-234zM426 1464q-3 113 37.5 175.5t111.5 62.5q54 0 127 -41q68 -39 95 -39q26 0 38.5 17.5t16.5 66.5h121q6 -229 -152 -229 q-61 0 -131 39l-24.5 14t-24.5 13t-19 7t-22 4q-45 0 -51 -90h-123z" />
<glyph unicode="&#xd2;" horiz-adv-x="1441" d="M74 680q0 211 82.5 376t232.5 257t342 92q147 0 268.5 -54t202 -148t124.5 -222t44 -276q0 -170 -49.5 -308.5t-137.5 -230t-209 -140.5t-263 -49q-192 0 -337.5 91.5t-222.5 251t-77 360.5zM340 686q0 -143 44.5 -256.5t132.5 -181.5t206 -68q119 0 206.5 69t131 185 t43.5 262q0 134 -41.5 246.5t-130 186t-209.5 73.5q-91 0 -164.5 -40.5t-121 -111t-72.5 -163.5t-25 -201zM395 1704h279l180 -244h-203z" />
<glyph unicode="&#xd3;" horiz-adv-x="1441" d="M74 680q0 211 82.5 376t232.5 257t342 92q147 0 268.5 -54t202 -148t124.5 -222t44 -276q0 -170 -49.5 -308.5t-137.5 -230t-209 -140.5t-263 -49q-192 0 -337.5 91.5t-222.5 251t-77 360.5zM340 686q0 -143 44.5 -256.5t132.5 -181.5t206 -68q119 0 206.5 69t131 185 t43.5 262q0 134 -41.5 246.5t-130 186t-209.5 73.5q-91 0 -164.5 -40.5t-121 -111t-72.5 -163.5t-25 -201zM594 1458l180 246h279l-256 -246h-203z" />
<glyph unicode="&#xd4;" horiz-adv-x="1441" d="M74 680q0 211 82.5 376t232.5 257t342 92q147 0 268.5 -54t202 -148t124.5 -222t44 -276q0 -170 -49.5 -308.5t-137.5 -230t-209 -140.5t-263 -49q-192 0 -337.5 91.5t-222.5 251t-77 360.5zM340 686q0 -143 44.5 -256.5t132.5 -181.5t206 -68q119 0 206.5 69t131 185 t43.5 262q0 134 -41.5 246.5t-130 186t-209.5 73.5q-91 0 -164.5 -40.5t-121 -111t-72.5 -163.5t-25 -201zM418 1456l207 244h190l211 -244h-188l-115 133h-4l-115 -133h-186z" />
<glyph unicode="&#xd5;" horiz-adv-x="1441" d="M74 680q0 211 82.5 376t232.5 257t342 92q147 0 268.5 -54t202 -148t124.5 -222t44 -276q0 -170 -49.5 -308.5t-137.5 -230t-209 -140.5t-263 -49q-192 0 -337.5 91.5t-222.5 251t-77 360.5zM340 686q0 -143 44.5 -256.5t132.5 -181.5t206 -68q119 0 206.5 69t131 185 t43.5 262q0 134 -41.5 246.5t-130 186t-209.5 73.5q-91 0 -164.5 -40.5t-121 -111t-72.5 -163.5t-25 -201zM449 1466q-3 111 37.5 173.5t111.5 62.5q51 0 127 -39q68 -39 94 -39t38.5 17.5t16.5 66.5h121q6 -229 -151 -229q-61 0 -131 39q-5 3 -17 9.5t-16.5 9t-14 7t-15 6 t-13 3t-14.5 1.5q-46 0 -52 -88h-122z" />
<glyph unicode="&#xd6;" horiz-adv-x="1441" d="M74 680q0 211 82.5 376t232.5 257t342 92q147 0 268.5 -54t202 -148t124.5 -222t44 -276q0 -170 -49.5 -308.5t-137.5 -230t-209 -140.5t-263 -49q-192 0 -337.5 91.5t-222.5 251t-77 360.5zM340 686q0 -143 44.5 -256.5t132.5 -181.5t206 -68q119 0 206.5 69t131 185 t43.5 262q0 134 -41.5 246.5t-130 186t-209.5 73.5q-91 0 -164.5 -40.5t-121 -111t-72.5 -163.5t-25 -201zM397 1589q0 53 35.5 89t87.5 36q51 0 85 -35.5t34 -89.5q0 -51 -34 -87t-87 -36q-52 0 -86.5 36.5t-34.5 86.5zM803 1589q0 53 35 89t88 36q51 0 84.5 -35.5 t33.5 -89.5q0 -51 -34 -87t-88 -36q-51 0 -85 36t-34 87z" />
<glyph unicode="&#xd7;" horiz-adv-x="1220" d="M82 117l414 422l-414 424l113 114l415 -424l414 424l115 -114l-414 -424l414 -422l-115 -117l-414 422l-413 -422z" />
<glyph unicode="&#xd8;" horiz-adv-x="1441" d="M74 688q0 207 83 370.5t232 255t338 91.5q188 0 322 -92l116 166l146 -99l-119 -174q87 -94 132.5 -225.5t45.5 -280.5q0 -170 -50.5 -308.5t-138.5 -228t-205 -138t-253 -48.5q-176 0 -320 89l-124 -181l-140 111l121 176q-90 96 -138 228.5t-48 287.5zM328 692 q0 -162 73 -305h5l524 748q-90 71 -205 71q-125 0 -216.5 -70.5t-136 -185.5t-44.5 -258zM522 248q81 -72 201 -72q121 0 211 69t136 186t46 265q0 160 -67 291h-7z" />
<glyph unicode="&#xd9;" horiz-adv-x="1363" d="M143 590v790h252v-805q0 -197 75.5 -296t207.5 -99q140 0 215.5 98.5t75.5 296.5v805h252v-788q0 -310 -146.5 -462.5t-404.5 -152.5q-250 0 -388.5 149.5t-138.5 463.5zM365 1700h278l180 -244h-202z" />
<glyph unicode="&#xda;" horiz-adv-x="1363" d="M143 590v790h252v-805q0 -197 75.5 -296t207.5 -99q140 0 215.5 98.5t75.5 296.5v805h252v-788q0 -310 -146.5 -462.5t-404.5 -152.5q-250 0 -388.5 149.5t-138.5 463.5zM549 1454l180 246h279l-256 -246h-203z" />
<glyph unicode="&#xdb;" horiz-adv-x="1363" d="M143 590v790h252v-805q0 -197 75.5 -296t207.5 -99q140 0 215.5 98.5t75.5 296.5v805h252v-788q0 -310 -146.5 -462.5t-404.5 -152.5q-250 0 -388.5 149.5t-138.5 463.5zM395 1454l207 244h191l211 -244h-189l-115 133h-4l-114 -133h-187z" />
<glyph unicode="&#xdc;" horiz-adv-x="1363" d="M143 590v790h252v-805q0 -197 75.5 -296t207.5 -99q140 0 215.5 98.5t75.5 296.5v805h252v-788q0 -310 -146.5 -462.5t-404.5 -152.5q-250 0 -388.5 149.5t-138.5 463.5zM367 1589q0 53 35 89t87 36q51 0 85 -35.5t34 -89.5q0 -51 -34 -87t-87 -36q-52 0 -86 36t-34 87z M772 1589q0 53 35 89t88 36q51 0 85 -35.5t34 -89.5q0 -51 -34.5 -87t-88.5 -36q-51 0 -85 36t-34 87z" />
<glyph unicode="&#xdd;" horiz-adv-x="1177" d="M23 1380h288l164 -354q73 -159 121 -274h4q39 103 119 274l166 354h284l-458 -798v-582h-252v575zM473 1448l180 246h279l-256 -246h-203z" />
<glyph unicode="&#xde;" horiz-adv-x="1142" d="M145 0v1380h248v-258q73 13 182 13q244 0 371 -113q60 -51 92.5 -125t32.5 -160q0 -116 -40.5 -204.5t-113.5 -142t-167.5 -80.5t-208.5 -27q-90 0 -148 10v-293h-248zM393 492q60 -13 139 -13q141 0 215 64t74 174t-71.5 166.5t-200.5 56.5q-98 0 -156 -12v-436z" />
<glyph unicode="&#xdf;" horiz-adv-x="1179" d="M135 0v901q0 315 152 457q128 119 340 119q173 0 289 -99t116 -266q0 -104 -47 -168q-131 -59 -131 -151q0 -40 20 -74.5t64 -81.5q40 -41 59.5 -63.5t49 -65t42.5 -89t13 -100.5q0 -154 -104.5 -248t-286.5 -94q-132 0 -219 37l36 189q71 -33 156 -33q77 0 121.5 38 t44.5 97q0 47 -21 85t-69 87q-38 38 -57.5 60t-47.5 60t-40.5 78.5t-12.5 84.5q0 78 44 144t128 108q17 39 17 80q0 86 -50 138t-135 52q-106 0 -162.5 -85t-56.5 -277v-920h-252z" />
<glyph unicode="&#xe0;" horiz-adv-x="1040" d="M66 274q0 185 155.5 282t435.5 95v17q0 30 -7.5 56t-27 55t-62.5 46t-105 17q-72 0 -144.5 -20.5t-124.5 -53.5l-49 164q62 38 156 63t205 25q115 0 198 -34.5t128 -95.5t65 -133t20 -159v-358q0 -154 17 -240h-228l-18 111h-6q-46 -61 -123 -97.5t-172 -36.5 q-144 0 -228.5 88t-84.5 209zM201 1430h245l179 -304h-174zM315 301q0 -70 40 -106.5t104 -36.5q73 0 125.5 39.5t72.5 97.5q7 21 7 55v137q-349 4 -349 -186z" />
<glyph unicode="&#xe1;" horiz-adv-x="1040" d="M66 274q0 185 155.5 282t435.5 95v17q0 30 -7.5 56t-27 55t-62.5 46t-105 17q-72 0 -144.5 -20.5t-124.5 -53.5l-49 164q62 38 156 63t205 25q115 0 198 -34.5t128 -95.5t65 -133t20 -159v-358q0 -154 17 -240h-228l-18 111h-6q-46 -61 -123 -97.5t-172 -36.5 q-144 0 -228.5 88t-84.5 209zM315 301q0 -70 40 -106.5t104 -36.5q73 0 125.5 39.5t72.5 97.5q7 21 7 55v137q-349 4 -349 -186zM393 1126l178 304h246l-250 -304h-174z" />
<glyph unicode="&#xe2;" horiz-adv-x="1040" d="M66 274q0 185 155.5 282t435.5 95v17q0 30 -7.5 56t-27 55t-62.5 46t-105 17q-72 0 -144.5 -20.5t-124.5 -53.5l-49 164q62 38 156 63t205 25q115 0 198 -34.5t128 -95.5t65 -133t20 -159v-358q0 -154 17 -240h-228l-18 111h-6q-46 -61 -123 -97.5t-172 -36.5 q-144 0 -228.5 88t-84.5 209zM227 1126l199 304h170l201 -304h-174l-109 185h-4l-111 -185h-172zM315 301q0 -70 40 -106.5t104 -36.5q73 0 125.5 39.5t72.5 97.5q7 21 7 55v137q-349 4 -349 -186z" />
<glyph unicode="&#xe3;" horiz-adv-x="1040" d="M66 274q0 185 155.5 282t435.5 95v17q0 30 -7.5 56t-27 55t-62.5 46t-105 17q-72 0 -144.5 -20.5t-124.5 -53.5l-49 164q62 38 156 63t205 25q115 0 198 -34.5t128 -95.5t65 -133t20 -159v-358q0 -154 17 -240h-228l-18 111h-6q-46 -61 -123 -97.5t-172 -36.5 q-144 0 -228.5 88t-84.5 209zM233 1151q-4 115 38.5 179.5t117.5 64.5q49 0 129 -43q5 -3 18.5 -10.5t19.5 -10.5t16 -7.5t18 -6.5t16 -2q25 0 37.5 19t15.5 69h123q6 -238 -155 -238q-56 0 -133 43q-53 31 -71 34q-6 1 -13 1q-46 0 -52 -92h-125zM315 301q0 -70 40 -106.5 t104 -36.5q73 0 125.5 39.5t72.5 97.5q7 21 7 55v137q-349 4 -349 -186z" />
<glyph unicode="&#xe4;" horiz-adv-x="1040" d="M66 274q0 185 155.5 282t435.5 95v17q0 30 -7.5 56t-27 55t-62.5 46t-105 17q-72 0 -144.5 -20.5t-124.5 -53.5l-49 164q62 38 156 63t205 25q115 0 198 -34.5t128 -95.5t65 -133t20 -159v-358q0 -154 17 -240h-228l-18 111h-6q-46 -61 -123 -97.5t-172 -36.5 q-144 0 -228.5 88t-84.5 209zM190 1278q0 54 37 90.5t92 36.5q51 0 86 -36t35 -91q0 -52 -35.5 -88.5t-89.5 -36.5q-53 0 -89 36.5t-36 88.5zM315 301q0 -70 40 -106.5t104 -36.5q73 0 125.5 39.5t72.5 97.5q7 21 7 55v137q-349 4 -349 -186zM598 1278q0 54 36.5 90.5 t90.5 36.5q53 0 88 -36t35 -91q0 -52 -35 -88.5t-88 -36.5h-4q-52 0 -87.5 36.5t-35.5 88.5z" />
<glyph unicode="&#xe5;" horiz-adv-x="1040" d="M66 274q0 185 155.5 282t435.5 95v17q0 30 -7.5 56t-27 55t-62.5 46t-105 17q-72 0 -144.5 -20.5t-124.5 -53.5l-49 164q62 38 156 63t205 25q115 0 198 -34.5t128 -95.5t65 -133t20 -159v-358q0 -154 17 -240h-228l-18 111h-6q-46 -61 -123 -97.5t-172 -36.5 q-144 0 -228.5 88t-84.5 209zM297 1294q0 87 60.5 144t164.5 57q101 0 160 -55.5t59 -143.5q0 -85 -61.5 -139.5t-159.5 -54.5q-100 0 -161.5 54.5t-61.5 137.5zM315 301q0 -70 40 -106.5t104 -36.5q71 0 124.5 39.5t73.5 97.5q7 21 7 55v137q-349 4 -349 -186zM422 1296 q0 -41 27 -72.5t69 -31.5q46 0 73 30.5t27 75.5t-27 76t-73 31q-44 0 -70 -32.5t-26 -76.5z" />
<glyph unicode="&#xe6;" horiz-adv-x="1617" d="M66 276q0 177 157.5 272t438.5 93v35q0 18 -8.5 42t-29 54t-65.5 50t-108 20q-69 0 -141 -22t-122 -54l-51 162q66 39 155.5 65.5t178.5 26.5q244 0 326 -182h6q55 87 142.5 134.5t199.5 47.5q87 0 157.5 -30t115.5 -78.5t75.5 -112.5t43.5 -128.5t13 -129.5 q0 -30 -6 -99h-647q0 -129 80.5 -202.5t210.5 -73.5q145 0 274 55l39 -172q-141 -72 -348 -72q-129 0 -231.5 52t-147.5 145h-6q-55 -93 -150.5 -145t-222.5 -52q-153 0 -241 87t-88 212zM313 295q0 -64 42.5 -100.5t105.5 -36.5q74 0 124 37.5t72 95.5q11 27 11 67v123 q-72 1 -131.5 -7.5t-112 -28t-82 -58t-29.5 -92.5zM895 616h420q1 34 -8 71t-29.5 75.5t-62.5 63t-99 24.5q-54 0 -97.5 -23t-69 -59.5t-39 -75.5t-15.5 -76z" />
<glyph unicode="&#xe7;" horiz-adv-x="919" d="M72 489q0 112 38 209t108 168.5t175.5 112.5t233.5 41q137 0 243 -45l-45 -191q-80 39 -192 39q-139 0 -222 -91.5t-81 -231.5q0 -150 86 -236t219 -86q103 0 199 39l34 -186q-95 -48 -245 -51l-43 -76q62 -13 104.5 -54t42.5 -104q0 -94 -67 -138t-164 -44t-158 37 l35 112q48 -28 112 -28q80 0 80 57q0 35 -39 53.5t-120 26.5l81 166q-191 26 -303 160.5t-112 340.5z" />
<glyph unicode="&#xe8;" horiz-adv-x="1056" d="M72 483q0 105 32 200.5t91.5 171t153.5 120.5t210 45q94 0 169 -29.5t123 -77.5t80 -112.5t45 -130.5t13 -135q0 -61 -8 -107h-668q3 -87 47 -146.5t110.5 -85.5t150.5 -26q146 0 276 45l37 -172q-146 -63 -348 -63q-241 0 -377.5 136t-136.5 367zM260 1430h246l178 -304 h-174zM313 604h439q1 39 -8.5 78t-31 78t-65 63.5t-102.5 24.5q-56 0 -100.5 -23.5t-71 -61t-41.5 -78t-19 -81.5z" />
<glyph unicode="&#xe9;" horiz-adv-x="1056" d="M72 483q0 105 32 200.5t91.5 171t153.5 120.5t210 45q94 0 169 -29.5t123 -77.5t80 -112.5t45 -130.5t13 -135q0 -61 -8 -107h-668q3 -87 47 -146.5t110.5 -85.5t150.5 -26q146 0 276 45l37 -172q-146 -63 -348 -63q-241 0 -377.5 136t-136.5 367zM313 604h439 q1 39 -8.5 78t-31 78t-65 63.5t-102.5 24.5q-56 0 -100.5 -23.5t-71 -61t-41.5 -78t-19 -81.5zM440 1126l178 304h246l-250 -304h-174z" />
<glyph unicode="&#xea;" horiz-adv-x="1056" d="M72 483q0 105 32 200.5t91.5 171t153.5 120.5t210 45q94 0 169 -29.5t123 -77.5t80 -112.5t45 -130.5t13 -135q0 -61 -8 -107h-668q3 -87 47 -146.5t110.5 -85.5t150.5 -26q146 0 276 45l37 -172q-146 -63 -348 -63q-241 0 -377.5 136t-136.5 367zM266 1126l199 304h170 l201 -304h-174l-109 185h-4l-111 -185h-172zM313 604h439q1 39 -8.5 78t-31 78t-65 63.5t-102.5 24.5q-56 0 -100.5 -23.5t-71 -61t-41.5 -78t-19 -81.5z" />
<glyph unicode="&#xeb;" horiz-adv-x="1056" d="M72 483q0 105 32 200.5t91.5 171t153.5 120.5t210 45q94 0 169 -29.5t123 -77.5t80 -112.5t45 -130.5t13 -135q0 -61 -8 -107h-668q3 -87 47 -146.5t110.5 -85.5t150.5 -26q146 0 276 45l37 -172q-146 -63 -348 -63q-241 0 -377.5 136t-136.5 367zM233 1278q0 54 37 90.5 t92 36.5q51 0 86 -36t35 -91q0 -52 -35.5 -88.5t-89.5 -36.5q-53 0 -89 36.5t-36 88.5zM313 604h439q1 39 -8.5 78t-31 78t-65 63.5t-102.5 24.5q-56 0 -100.5 -23.5t-71 -61t-41.5 -78t-19 -81.5zM641 1278q0 54 36.5 90.5t90.5 36.5q53 0 88 -36t35 -91q0 -52 -35 -88.5 t-88 -36.5h-4q-52 0 -87.5 36.5t-35.5 88.5z" />
<glyph unicode="&#xec;" horiz-adv-x="524" d="M-59 1430h245l179 -304h-175zM135 0v997h252v-997h-252z" />
<glyph unicode="&#xed;" horiz-adv-x="524" d="M135 0v997h252v-997h-252zM145 1126l177 304h247l-250 -304h-174z" />
<glyph unicode="&#xee;" horiz-adv-x="524" d="M-23 1126l199 304h170l201 -304h-174l-111 185h-4l-108 -185h-173zM135 0v997h252v-997h-252z" />
<glyph unicode="&#xef;" horiz-adv-x="524" d="M-68 1278q0 54 37 90.5t92 36.5q51 0 86 -36t35 -91q0 -52 -35.5 -88.5t-89.5 -36.5q-53 0 -89 36.5t-36 88.5zM135 0v997h252v-997h-252zM342 1278q0 54 36.5 90.5t90.5 36.5q53 0 88 -36t35 -91q0 -52 -35 -88.5t-88 -36.5h-4q-52 0 -87.5 36.5t-35.5 88.5z" />
<glyph unicode="&#xf0;" horiz-adv-x="1146" d="M72 483q0 111 38 205t102.5 156.5t149 97.5t177.5 37q111 0 184 -61l4 6q-83 125 -207 213l-293 -131l-47 106l226 105q-70 47 -203 108l110 148q150 -60 308 -164l272 123l53 -107l-217 -98q166 -132 256 -316q86 -170 86 -389q0 -137 -43 -244.5t-115 -171.5 t-159.5 -96.5t-184.5 -32.5q-216 0 -356.5 138.5t-140.5 367.5zM332 485q0 -139 65.5 -232t173.5 -93q112 0 176 92.5t64 243.5q0 169 -57 243q-69 80 -179 80q-52 0 -94 -21t-69.5 -55t-46 -78.5t-26 -89.5t-7.5 -90z" />
<glyph unicode="&#xf1;" horiz-adv-x="1171" d="M127 997h219l12 -149h7q40 69 122.5 120.5t196.5 51.5q69 0 129.5 -23.5t112 -71.5t82 -134t30.5 -199v-592h-252v563q0 115 -46 183.5t-144 68.5q-71 0 -123 -42.5t-74 -104.5q-12 -30 -12 -80v-588h-252v700q0 125 -8 297zM313 1151q-4 115 38.5 179.5t117.5 64.5 q49 0 129 -43q6 -3 18.5 -10.5t19 -10.5t16.5 -7.5t17.5 -6.5t14.5 -2q26 0 39 19t16 69h123q6 -238 -155 -238q-57 0 -134 43q-53 31 -71 34q-6 1 -13 1q-45 0 -51 -92h-125z" />
<glyph unicode="&#xf2;" horiz-adv-x="1155" d="M72 492q0 242 143.5 385t372.5 143q222 0 358.5 -142t136.5 -370q0 -132 -44 -236.5t-117.5 -167.5t-163 -95t-187.5 -32q-216 0 -357.5 139.5t-141.5 375.5zM283 1430h245l179 -304h-175zM332 498q0 -147 68 -242.5t180 -95.5q107 0 175 95t68 247q0 61 -14 118.5 t-41.5 107.5t-75.5 80t-110 30q-64 0 -113.5 -29.5t-78.5 -79t-43.5 -108t-14.5 -123.5z" />
<glyph unicode="&#xf3;" horiz-adv-x="1155" d="M72 492q0 242 143.5 385t372.5 143q222 0 358.5 -142t136.5 -370q0 -132 -44 -236.5t-117.5 -167.5t-163 -95t-187.5 -32q-216 0 -357.5 139.5t-141.5 375.5zM332 498q0 -147 68 -242.5t180 -95.5q107 0 175 95t68 247q0 61 -14 118.5t-41.5 107.5t-75.5 80t-110 30 q-64 0 -113.5 -29.5t-78.5 -79t-43.5 -108t-14.5 -123.5zM453 1126l178 304h246l-250 -304h-174z" />
<glyph unicode="&#xf4;" horiz-adv-x="1155" d="M72 492q0 242 143.5 385t372.5 143q222 0 358.5 -142t136.5 -370q0 -132 -44 -236.5t-117.5 -167.5t-163 -95t-187.5 -32q-216 0 -357.5 139.5t-141.5 375.5zM293 1126l199 304h170l200 -304h-174l-108 185h-5l-110 -185h-172zM332 498q0 -147 68 -242.5t180 -95.5 q107 0 175 95t68 247q0 61 -14 118.5t-41.5 107.5t-75.5 80t-110 30q-64 0 -113.5 -29.5t-78.5 -79t-43.5 -108t-14.5 -123.5z" />
<glyph unicode="&#xf5;" horiz-adv-x="1155" d="M72 492q0 242 143.5 385t372.5 143q222 0 358.5 -142t136.5 -370q0 -132 -44 -236.5t-117.5 -167.5t-163 -95t-187.5 -32q-216 0 -357.5 139.5t-141.5 375.5zM303 1151q-4 115 38.5 179.5t117.5 64.5q49 0 129 -43q8 -4 24 -13t24 -13t19 -7.5t21 -3.5q26 0 38 18.5 t15 69.5h123q6 -238 -156 -238q-56 0 -133 43q-53 31 -71 34q-6 1 -13 1q-45 0 -51 -92h-125zM332 498q0 -147 68 -242.5t180 -95.5q107 0 175 95t68 247q0 61 -14 118.5t-41.5 107.5t-75.5 80t-110 30q-64 0 -113.5 -29.5t-78.5 -79t-43.5 -108t-14.5 -123.5z" />
<glyph unicode="&#xf6;" horiz-adv-x="1155" d="M72 492q0 242 143.5 385t372.5 143q222 0 358.5 -142t136.5 -370q0 -132 -44 -236.5t-117.5 -167.5t-163 -95t-187.5 -32q-216 0 -357.5 139.5t-141.5 375.5zM248 1278q0 54 37 90.5t92 36.5q51 0 86 -36t35 -91q0 -52 -35.5 -88.5t-89.5 -36.5q-53 0 -89 36.5t-36 88.5z M332 498q0 -147 68 -242.5t180 -95.5q107 0 175 95t68 247q0 61 -14 118.5t-41.5 107.5t-75.5 80t-110 30q-64 0 -113.5 -29.5t-78.5 -79t-43.5 -108t-14.5 -123.5zM655 1278q0 54 36.5 90.5t90.5 36.5q53 0 88 -36t35 -91q0 -52 -35 -88.5t-88 -36.5h-4q-52 0 -87.5 36.5 t-35.5 88.5z" />
<glyph unicode="&#xf7;" horiz-adv-x="1220" d="M82 467v160h1057v-160h-1057zM479 188q0 60 36.5 98t94.5 38q59 0 94 -37.5t37 -98.5q0 -59 -36 -97t-97 -38q-57 0 -93 38t-36 97zM479 905q0 60 36.5 97.5t94.5 37.5q59 0 94 -37t37 -98q0 -59 -36 -97t-97 -38q-57 0 -93 38t-36 97z" />
<glyph unicode="&#xf8;" horiz-adv-x="1155" d="M72 496q0 238 142.5 381t367.5 143q133 0 245 -62l91 134l96 -68l-90 -131q159 -143 159 -389q0 -130 -43.5 -233.5t-115.5 -166t-160 -95t-184 -32.5q-141 0 -246 60l-94 -135l-93 73l89 127q-164 141 -164 394zM315 498q0 -118 52 -201h6l344 494q-56 47 -142 47 q-67 0 -119 -30.5t-82 -81t-44.5 -108.5t-14.5 -120zM442 207q50 -47 133 -47q120 0 192.5 93.5t72.5 244.5q0 113 -49 194l-5 2z" />
<glyph unicode="&#xf9;" horiz-adv-x="1165" d="M131 412v585h252v-542q0 -273 186 -273q71 0 121.5 39.5t71.5 95.5q14 28 14 78v602h252v-698q0 -135 8 -299h-219l-12 150h-6q-18 -30 -44 -57t-64.5 -55t-94 -44.5t-119.5 -16.5q-71 0 -130.5 23t-109.5 71.5t-78 135.5t-28 205zM279 1430h245l178 -304h-174z" />
<glyph unicode="&#xfa;" horiz-adv-x="1165" d="M131 412v585h252v-542q0 -273 186 -273q71 0 121.5 39.5t71.5 95.5q14 28 14 78v602h252v-698q0 -135 8 -299h-219l-12 150h-6q-18 -30 -44 -57t-64.5 -55t-94 -44.5t-119.5 -16.5q-71 0 -130.5 23t-109.5 71.5t-78 135.5t-28 205zM473 1126l178 304h246l-250 -304h-174z " />
<glyph unicode="&#xfb;" horiz-adv-x="1165" d="M131 412v585h252v-542q0 -273 186 -273q71 0 121.5 39.5t71.5 95.5q14 28 14 78v602h252v-698q0 -135 8 -299h-219l-12 150h-6q-18 -30 -44 -57t-64.5 -55t-94 -44.5t-119.5 -16.5q-71 0 -130.5 23t-109.5 71.5t-78 135.5t-28 205zM299 1126l197 304h172l200 -304h-174 l-110 185h-4l-109 -185h-172z" />
<glyph unicode="&#xfc;" horiz-adv-x="1165" d="M131 412v585h252v-542q0 -273 186 -273q71 0 121.5 39.5t71.5 95.5q14 28 14 78v602h252v-698q0 -135 8 -299h-219l-12 150h-6q-18 -30 -44 -57t-64.5 -55t-94 -44.5t-119.5 -16.5q-71 0 -130.5 23t-109.5 71.5t-78 135.5t-28 205zM258 1278q0 54 37 90.5t92 36.5 q51 0 86 -36t35 -91q0 -52 -35.5 -88.5t-89.5 -36.5q-53 0 -89 36.5t-36 88.5zM668 1278q0 54 36.5 90.5t90.5 36.5q53 0 88 -36t35 -91q0 -52 -35 -88.5t-88 -36.5h-4q-52 0 -87.5 36.5t-35.5 88.5z" />
<glyph unicode="&#xfd;" horiz-adv-x="1024" d="M16 997h279l178 -534q35 -107 57 -193h7q36 142 53 195l155 532h269l-250 -680q-102 -277 -179.5 -420.5t-166.5 -220.5q-127 -109 -264 -127l-58 211q73 17 146 70q38 24 76 66t63 92q14 25 14 45q0 19 -12 49zM420 1126l178 304h246l-250 -304h-174z" />
<glyph unicode="&#xfe;" horiz-adv-x="1198" d="M135 -406v1786h252v-520h4q105 160 316 160q175 3 297 -136.5t122 -373.5q0 -133 -40 -238t-105.5 -167.5t-143.5 -95t-161 -32.5q-94 0 -167.5 36t-117.5 98h-4v-517h-252zM387 401q0 -46 25 -94q26 -62 81.5 -98.5t124.5 -36.5q115 0 183.5 90t68.5 244 q0 135 -65.5 225t-177.5 90q-73 0 -132 -40.5t-87 -110.5q-21 -52 -21 -92v-177z" />
<glyph unicode="&#xff;" horiz-adv-x="1024" d="M16 997h279l178 -534q35 -107 57 -193h7q36 142 53 195l155 532h269l-250 -680q-102 -277 -179.5 -420.5t-166.5 -220.5q-127 -109 -264 -127l-58 211q73 17 146 70q38 24 76 66t63 92q14 25 14 45q0 19 -12 49zM205 1278q0 54 37 90.5t92 36.5q51 0 86 -36t35 -91 q0 -52 -35.5 -88.5t-89.5 -36.5q-53 0 -89 36.5t-36 88.5zM614 1278q0 54 36.5 90.5t90.5 36.5q53 0 88 -36t35 -91q0 -52 -35 -88.5t-88 -36.5h-4q-52 0 -87.5 36.5t-35.5 88.5z" />
<glyph unicode="&#x152;" horiz-adv-x="1878" d="M74 680q0 333 189.5 529t498.5 196q96 0 182 -14q13 -1 61 -6t70 -5h694v-206h-550v-357h520v-205h-520v-403h581v-209h-745q-9 0 -131 -10q-106 -13 -168 -13q-133 0 -244.5 36.5t-191.5 101t-136 153t-83 192.5t-27 220zM340 690q0 -230 121.5 -370t337.5 -140 q104 0 168 25v969q-70 28 -187 28q-196 0 -318 -138.5t-122 -373.5z" />
<glyph unicode="&#x153;" horiz-adv-x="1773" d="M72 494q0 238 138.5 382t354.5 144q119 0 216.5 -53.5t146.5 -151.5h4q58 101 150 153t206 52q91 0 164.5 -30t120 -78.5t77.5 -113.5t43.5 -130t12.5 -133q0 -49 -6 -103h-651q3 -123 87 -193.5t212 -70.5q133 0 272 53l37 -172q-66 -37 -161.5 -54.5t-182.5 -17.5 q-261 0 -379 203h-6q-58 -100 -159 -151.5t-220 -51.5q-133 0 -241 62t-172 180.5t-64 274.5zM332 496q0 -144 66.5 -240t174.5 -96q110 0 175 92.5t65 245.5q0 67 -14.5 126t-42.5 108t-75 77.5t-108 28.5q-65 0 -114 -31t-75.5 -83t-39 -109t-12.5 -119zM1044 606h426 q1 39 -7.5 76.5t-29 77t-63.5 64t-104 24.5q-53 0 -96 -23.5t-68.5 -60.5t-40 -77.5t-17.5 -80.5z" />
<glyph unicode="&#x178;" horiz-adv-x="1177" d="M23 1380h288l164 -354q73 -159 121 -274h4q39 103 119 274l166 354h284l-458 -798v-582h-252v575zM283 1581q0 53 35.5 89t87.5 36q51 0 84.5 -35.5t33.5 -89.5q0 -51 -34 -87t-87 -36q-52 0 -86 36t-34 87zM688 1581q0 53 35 89t88 36q51 0 85 -35.5t34 -89.5 q0 -51 -34.5 -87t-88.5 -36q-51 0 -85 36t-34 87z" />
<glyph unicode="&#x2c6;" horiz-adv-x="614" d="M23 1126l198 304h170l201 -304h-174l-109 185h-4l-110 -185h-172z" />
<glyph unicode="&#x2dc;" horiz-adv-x="614" d="M33 1151q-4 115 38 179.5t117 64.5q47 0 131 -43q5 -3 19 -10.5t19.5 -10.5t16 -8t18 -6.5t14.5 -1.5q26 0 39 19t16 69h123q6 -238 -156 -238q-55 0 -135 43q-53 31 -71 34q-6 1 -13 1q-45 0 -51 -92h-125z" />
<glyph unicode="&#x2000;" horiz-adv-x="910" />
<glyph unicode="&#x2001;" horiz-adv-x="1821" />
<glyph unicode="&#x2002;" horiz-adv-x="910" />
<glyph unicode="&#x2003;" horiz-adv-x="1821" />
<glyph unicode="&#x2004;" horiz-adv-x="607" />
<glyph unicode="&#x2005;" horiz-adv-x="455" />
<glyph unicode="&#x2006;" horiz-adv-x="303" />
<glyph unicode="&#x2007;" horiz-adv-x="303" />
<glyph unicode="&#x2008;" horiz-adv-x="227" />
<glyph unicode="&#x2009;" horiz-adv-x="364" />
<glyph unicode="&#x200a;" horiz-adv-x="101" />
<glyph unicode="&#x2010;" horiz-adv-x="645" d="M61 459v174h523v-174h-523z" />
<glyph unicode="&#x2011;" horiz-adv-x="645" d="M61 459v174h523v-174h-523z" />
<glyph unicode="&#x2012;" horiz-adv-x="645" d="M61 459v174h523v-174h-523z" />
<glyph unicode="&#x2013;" horiz-adv-x="1024" d="M61 440v160h902v-160h-902z" />
<glyph unicode="&#x2014;" horiz-adv-x="2048" d="M61 440v160h1926v-160h-1926z" />
<glyph unicode="&#x2018;" horiz-adv-x="483" d="M61 879q41 137 102.5 282t119.5 242l155 14q-95 -270 -133 -520z" />
<glyph unicode="&#x2019;" horiz-adv-x="483" d="M59 879q98 281 134 520l243 20q-41 -138 -102 -282.5t-119 -241.5z" />
<glyph unicode="&#x201a;" horiz-adv-x="483" d="M37 -225q95 269 133 518l244 20q-41 -139 -102.5 -283.5t-118.5 -238.5z" />
<glyph unicode="&#x201c;" horiz-adv-x="837" d="M61 879q41 137 102.5 282t119.5 242l155 14q-93 -253 -133 -520zM418 879q43 141 104 285.5t117 238.5l156 14q-95 -270 -133 -520z" />
<glyph unicode="&#x201d;" horiz-adv-x="837" d="M59 879q98 281 134 520l243 20q-43 -141 -103.5 -285t-117.5 -239zM416 879q94 259 133 520l244 20q-40 -138 -101.5 -282t-120.5 -242z" />
<glyph unicode="&#x201e;" horiz-adv-x="843" d="M35 -225q95 269 133 518l244 20q-43 -141 -104 -285t-118 -237zM391 -225q92 252 133 518l244 20q-41 -139 -102.5 -283.5t-118.5 -238.5z" />
<glyph unicode="&#x2022;" horiz-adv-x="641" d="M78 535q-1 101 70.5 172t173.5 71t172.5 -70.5t70.5 -172.5q0 -103 -71.5 -173.5t-174.5 -70.5q-101 0 -171 70.5t-70 173.5z" />
<glyph unicode="&#x2026;" horiz-adv-x="2048" d="M186 139q0 70 44 116t112 46q69 0 112.5 -45t43.5 -117q0 -70 -43.5 -116t-114.5 -46q-67 0 -110.5 46.5t-43.5 115.5zM870 139q0 70 44 116t112 46q69 0 112.5 -45t43.5 -117q0 -70 -43.5 -116t-114.5 -46q-67 0 -110.5 46.5t-43.5 115.5zM1554 139q0 70 44 116t112 46 q69 0 112.5 -45t43.5 -117q0 -70 -43.5 -116t-114.5 -46q-67 0 -110.5 46.5t-43.5 115.5z" />
<glyph unicode="&#x202f;" horiz-adv-x="364" />
<glyph unicode="&#x2039;" horiz-adv-x="540" d="M57 516l252 385h185l-256 -385l256 -383h-185z" />
<glyph unicode="&#x203a;" horiz-adv-x="540" d="M47 133l256 383l-256 385h182l254 -385l-254 -383h-182z" />
<glyph unicode="&#x205f;" horiz-adv-x="455" />
<glyph unicode="&#x20ac;" d="M14 492v126h115v31q0 30 4 76h-119v127h138q36 185 153 311q175 191 443 191q160 0 292 -64l-51 -188q-104 53 -229 53q-159 0 -260 -113q-65 -68 -90 -190h536v-127h-561q-4 -23 -4 -74v-33h565v-126h-543q21 -128 89 -199q102 -111 274 -111q129 0 242 60l43 -183 q-57 -35 -140 -58.5t-174 -23.5q-141 0 -261.5 54.5t-201.5 156.5q-102 118 -129 304h-131z" />
<glyph unicode="&#x2122;" horiz-adv-x="1302" d="M59 1264v116h478v-116h-168v-443h-144v443h-166zM573 821l37 559h219l64 -198q15 -54 35 -162h2q24 103 39 160l67 200h207l35 -559h-139l-17 283q0 116 -2 190h-8q-6 -28 -47 -194l-78 -269h-139l-72 273q-36 178 -39 190h-8q0 -76 -4 -190l-16 -283h-136z" />
<glyph unicode="&#x25fc;" horiz-adv-x="993" d="M0 0v993h993v-993h-993z" />
<glyph unicode="&#xfb01;" horiz-adv-x="1144" d="M29 809v188h135v47q0 201 129.5 317t351.5 116q76 0 155.5 -18t121.5 -46l-58 -190q-88 53 -219 53q-122 0 -176.5 -65t-54.5 -173v-41h594v-997h-252v809h-340v-809h-252v809h-135z" />
<glyph unicode="&#xfb02;" horiz-adv-x="1144" d="M29 809v188h135v43q0 96 38 183.5t109 146.5q128 107 353 107q204 0 346 -76v-1401h-252v1264q-42 22 -133 22q-109 0 -160 -67.5t-51 -176.5v-45h204v-188h-202v-809h-252v809h-135z" />
</font>
</defs>
</svg>
